# xmcd CD database file
#
# Track frame offsets:
#	182
#	11622
#	22985
#	35682
#	47447
#	57930
#	69532
#	80265
#	90992
#	102535
#
# Disc length: 1519 seconds
#
# Revision: 1
# Processed by: cddbd v1.4b41PL3 Copyright (c) Steve Scherf et al.
# Submitted via: CDex 1.40Beta4
#
DISCID=7205ed0a
DTITLE=Kitty Wells - Kitty Well's Greatest Songs
DYEAR=1995
DGENRE=Country
TTITLE0=It Wasn't God Who Made Honkey Tonk Angels
TTITLE1=Heartbreak USA
TTITLE2=Makin Believe
TTITLE3=Amigo's Guitar
TTITLE4=Searching
TTITLE5=Left to Right
TTITLE6=Mommy For A Day
TTITLE7=Unloved, Unwanted
TTITLE8=Password
TTITLE9=You Don't Hear
EXTD=YEAR: 1995 ID3G:   2
EXTT0=
EXTT1=
EXTT2=
EXTT3=
EXTT4=
EXTT5=
EXTT6=
EXTT7=
EXTT8=
EXTT9=
PLAYORDER=
